<?xml version="1.0" encoding="utf-8"?>
<!-- Generator: Adobe Illustrator 18.1.1, SVG Export Plug-In . SVG Version: 6.00 Build 0)  -->
<svg version="1.1" id="Layer_1" xmlns="http://www.w3.org/2000/svg" xmlns:xlink="http://www.w3.org/1999/xlink" x="0px" y="0px"
	 viewBox="0 0 500 500" enable-background="new 0 0 500 500" xml:space="preserve">
<g>
	<g>
		
			<linearGradient id="SVGID_1_" gradientUnits="userSpaceOnUse" x1="138.8403" y1="-275.7118" x2="490.9829" y2="76.4308" gradientTransform="matrix(0.7071 0.7071 -0.7071 0.7071 -43.2544 97.7818)">
			<stop  offset="0" style="stop-color:#73BAD1"/>
			<stop  offset="0.1438" style="stop-color:#6EB7CF"/>
			<stop  offset="0.332" style="stop-color:#5DAFCA"/>
			<stop  offset="0.5447" style="stop-color:#42A2C1"/>
			<stop  offset="0.7741" style="stop-color:#1D90B5"/>
			<stop  offset="0.7865" style="stop-color:#1A8EB4"/>
		</linearGradient>
		<polygon fill="url(#SVGID_1_)" points="249.9,499 0.9,250 249.9,1 498.9,250 		"/>
		<path fill="#FFFFFF" d="M402.5,250c0,84.3-68.3,152.7-152.7,152.7c-84.3,0-152.7-68.3-152.7-152.7c0-84.3,68.4-152.7,152.7-152.7
			C334.2,97.3,402.5,165.7,402.5,250z"/>
		<linearGradient id="SVGID_2_" gradientUnits="userSpaceOnUse" x1="249.875" y1="387.3878" x2="249.875" y2="103.218">
			<stop  offset="0" style="stop-color:#80C0D5"/>
			<stop  offset="0.1346" style="stop-color:#7ABED4"/>
			<stop  offset="0.3108" style="stop-color:#6AB6CE"/>
			<stop  offset="0.5101" style="stop-color:#4FA8C5"/>
			<stop  offset="0.7248" style="stop-color:#2996B9"/>
			<stop  offset="0.8" style="stop-color:#1A8EB4"/>
		</linearGradient>
		<path fill="url(#SVGID_2_)" d="M387.3,250c0,75.9-61.5,137.4-137.4,137.4c-75.9,0-137.4-61.5-137.4-137.4
			c0-75.9,61.5-137.4,137.4-137.4C325.8,112.6,387.3,174.1,387.3,250z"/>
		<g>
			<g>
				<path fill="#FFFFFF" d="M169.9,276.7c-1.4,1.2-2.7,2.2-3.8,3.2c-1.1,1-2.6,1.9-4.5,2.8c-1.8,0.9-3.6,1.6-5.4,2
					c-1.7,0.4-4.2,0.7-7.3,0.7c-5.8,0-10.7-2-14.5-5.9c-3.9-3.9-5.8-8.9-5.8-14.8c0-4.9,1-8.9,2.9-11.9c2-3,4.8-5.4,8.5-7.2
					c3.7-1.8,8.2-3.1,13.3-3.8c5.2-0.7,10.7-1.3,16.7-1.6v-0.4c0-3.6-1.4-6.2-4-7.6c-2.7-1.4-6.7-2.1-12.1-2.1
					c-2.4,0-5.3,0.4-8.5,1.3c-3.2,0.9-6.4,2-9.5,3.4h-1.8v-16c2-0.6,5.3-1.3,9.9-2.1c4.6-0.8,9.1-1.2,13.8-1.2
					c11.4,0,19.7,1.9,24.9,5.7c5.2,3.8,7.8,9.6,7.8,17.4v45.1h-20.6V276.7z M169.9,266.4v-13.7c-3.5,0.4-6.3,0.7-8.4,0.9
					c-2.1,0.3-4.3,0.8-6.3,1.5c-1.8,0.6-3.2,1.6-4.2,2.9c-1,1.3-1.5,3-1.5,5.1c0,3.1,0.8,5.2,2.5,6.4c1.6,1.1,4.1,1.7,7.3,1.7
					c1.8,0,3.6-0.4,5.5-1.2C166.7,269.1,168.3,267.9,169.9,266.4z"/>
				<path fill="#FFFFFF" d="M235.8,285.5c-5.5,0-10.5-0.7-15-2.1c-4.5-1.4-8.5-3.5-11.8-6.4c-3.3-2.9-5.9-6.4-7.7-10.8
					c-1.9-4.3-2.8-9.4-2.8-15.3c0-6.3,1-11.7,3-16.1c2-4.4,4.7-8.1,8.1-10.9c3.3-2.7,7.2-4.8,11.6-6.1c4.5-1.3,9.1-2,14-2
					c3.7,0,7.3,0.4,11,1.3c3.7,0.8,7.3,2.2,11,4v17.7h-2.7c-0.8-0.8-1.8-1.6-3-2.6c-1.2-0.9-2.5-1.8-3.9-2.6
					c-1.5-0.8-3.2-1.5-5.1-2.1c-1.9-0.6-4-0.9-6.3-0.9c-5.3,0-9.4,1.8-12.3,5.5c-2.9,3.7-4.3,8.6-4.3,14.8c0,6.6,1.5,11.6,4.6,14.8
					c3.1,3.2,7.2,4.9,12.3,4.9c2.6,0,4.9-0.3,6.8-0.9c2-0.6,3.7-1.3,5.1-2.1c1.4-0.8,2.6-1.7,3.5-2.6c1-0.9,1.8-1.7,2.5-2.4h2.7
					v17.6c-1.2,0.5-2.6,1.1-4.1,1.8c-1.6,0.6-3.1,1.2-4.7,1.6c-2,0.6-3.9,1-5.6,1.3C241,285.3,238.7,285.5,235.8,285.5z"/>
				<path fill="#FFFFFF" d="M347.2,283.8v-33.1c0-3.3-0.1-6-0.2-8.3c-0.1-2.2-0.5-4.1-1.1-5.5c-0.6-1.4-1.5-2.4-2.8-3.1
					c-1.2-0.7-3-1-5.2-1c-1.6,0-3.1,0.4-4.7,1c-1.5,0.7-3.2,1.7-5,2.9v46.9h-20.6v-33.1c0-3.2-0.1-6-0.2-8.2
					c-0.1-2.3-0.5-4.1-1.1-5.5c-0.6-1.4-1.5-2.4-2.8-3.1c-1.2-0.7-3-1-5.2-1c-1.7,0-3.4,0.4-5,1.2c-1.6,0.8-3.2,1.7-4.7,2.8v46.9
					h-20.6v-66.1h20.6v7.3c3.4-2.9,6.6-5.1,9.5-6.7c3-1.6,6.3-2.4,10.1-2.4c4.1,0,7.6,1,10.7,2.9c3.1,1.9,5.4,4.8,7,8.6
					c4-3.7,7.7-6.5,11.2-8.5c3.5-2,7.1-3,10.7-3c3.1,0,5.8,0.5,8.2,1.5c2.4,1,4.5,2.5,6.2,4.4c1.9,2.1,3.2,4.6,4.1,7.6
					c0.9,2.9,1.4,6.7,1.4,11.4v43.1H347.2z"/>
			</g>
		</g>
	</g>
</g>
</svg>
