<svg id="Layer_1" data-name="Layer 1" xmlns="http://www.w3.org/2000/svg" viewBox="0 0 200 200"><defs><style>.cls-1{fill:#0082ca;}.cls-2{fill:#fffffe;}</style></defs><title>Artboard 1</title><rect class="cls-1" x="32.66" y="32.75" width="134.49" height="134.49" transform="translate(-41.45 99.93) rotate(-45)"/><circle class="cls-2" cx="99.9" cy="100" r="58.31"/><circle class="cls-1" cx="99.9" cy="100" r="52.48"/><path class="cls-2" d="M69.35,110.22l-1.44,1.21a8.4,8.4,0,0,1-1.72,1.08,10.94,10.94,0,0,1-2.05.77,11.75,11.75,0,0,1-2.79.26,7.45,7.45,0,0,1-5.55-2.25,7.73,7.73,0,0,1-2.21-5.67,8.23,8.23,0,0,1,1.12-4.55,7.72,7.72,0,0,1,3.23-2.74A17.09,17.09,0,0,1,63,96.9q3-.4,6.37-.63v-.13a3,3,0,0,0-1.54-2.88,10.32,10.32,0,0,0-4.61-.8A12.55,12.55,0,0,0,60,93a25.62,25.62,0,0,0-3.63,1.3h-.67V88.14c.78-.23,2-.49,3.78-.8a30,30,0,0,1,5.26-.46q6.53,0,9.51,2.18t3,6.63v17.21H69.35Zm0-3.94V101l-3.21.35a10.84,10.84,0,0,0-2.41.57,3.36,3.36,0,0,0-1.6,1.09,3.06,3.06,0,0,0-.57,1.93,2.77,2.77,0,0,0,.95,2.43,4.91,4.91,0,0,0,2.8.66,5.26,5.26,0,0,0,2.09-.46A6.57,6.57,0,0,0,69.35,106.28Z"/><path class="cls-2" d="M94.53,113.54a19.7,19.7,0,0,1-5.74-.79,12.12,12.12,0,0,1-4.51-2.43,11.07,11.07,0,0,1-3-4.12,16.92,16.92,0,0,1,.09-12A11.55,11.55,0,0,1,84.53,90,12.2,12.2,0,0,1,89,87.68a18.84,18.84,0,0,1,5.33-.76,18.48,18.48,0,0,1,4.19.49A18.8,18.8,0,0,1,102.71,89v6.76h-1q-.47-.45-1.16-1a11.15,11.15,0,0,0-1.5-1,9.9,9.9,0,0,0-1.93-.8,8.39,8.39,0,0,0-2.41-.32A5.6,5.6,0,0,0,90,94.71a8.85,8.85,0,0,0-1.66,5.64q0,3.79,1.77,5.66a6.2,6.2,0,0,0,4.7,1.87,9.27,9.27,0,0,0,2.62-.34,8.81,8.81,0,0,0,1.94-.8,8.53,8.53,0,0,0,1.35-1c.38-.33.7-.63,1-.9h1v6.73l-1.57.68a15.28,15.28,0,0,1-1.81.62,20.44,20.44,0,0,1-2.16.48A17.08,17.08,0,0,1,94.53,113.54Z"/><path class="cls-2" d="M137.09,112.89V100.26c0-1.24,0-2.3-.07-3.15a6.4,6.4,0,0,0-.41-2.09,2.27,2.27,0,0,0-1.05-1.18,4.36,4.36,0,0,0-2-.37,4.42,4.42,0,0,0-1.78.39A12.59,12.59,0,0,0,129.85,95v17.92H122V100.26q0-1.84-.08-3.14a6.68,6.68,0,0,0-.42-2.11,2.27,2.27,0,0,0-1.05-1.18,4.76,4.76,0,0,0-3.87.07A14,14,0,0,0,114.74,95v17.92h-7.88V87.63h7.88v2.79a21.06,21.06,0,0,1,3.64-2.56,7.92,7.92,0,0,1,3.84-.93A7.47,7.47,0,0,1,126.3,88,6.91,6.91,0,0,1,129,91.32a23.37,23.37,0,0,1,4.29-3.25,8.21,8.21,0,0,1,4.08-1.14,8.36,8.36,0,0,1,3.15.57,6,6,0,0,1,2.36,1.69,7.94,7.94,0,0,1,1.58,2.89,14.77,14.77,0,0,1,.53,4.37v16.45Z"/></svg>